<?xml version="1.0"?>
<svg xmlns="http://www.w3.org/2000/svg" version="1.2" baseProfile="tiny" width="500" height="121" viewBox="0 0 500 121" stroke-linecap="butt" stroke-linejoin="round">
<style>
  path {shape-rendering: crispEdges;}
</style>
<g id="layer36">
<path d="M 1 90.64 1 60.76 5.98 60.76 5.98 90.64 1 90.64 Z" fill="#ddd"/>
<path d="M 10.96 90.64 10.96 60.76 15.94 60.76 15.94 90.64 10.96 90.64 Z" fill="#ddd"/>
<path d="M 15.94 90.64 15.94 60.76 20.92 60.76 20.92 90.64 15.94 90.64 Z" fill="#ddd"/>
<path d="M 20.92 90.64 20.92 60.76 25.9 60.76 25.9 90.64 20.92 90.64 Z" fill="#ddd"/>
<path d="M 70.72 90.64 70.72 60.76 75.7 60.76 75.7 90.64 70.72 90.64 Z" fill="#ddd"/>
<path d="M 85.66 90.64 85.66 60.76 90.64 60.76 90.64 90.64 85.66 90.64 Z" fill="#ddd"/>
<path d="M 90.64 90.64 90.64 60.76 95.62 60.76 95.62 90.64 90.64 90.64 Z" fill="#ddd"/>
<path d="M 120.52 90.64 120.52 60.76 125.5 60.76 125.5 90.64 120.52 90.64 Z" fill="#ddd"/>
<path d="M 130.48 90.64 130.48 60.76 135.46 60.76 135.46 90.64 130.48 90.64 Z" fill="#ddd"/>
<path d="M 135.46 90.64 135.46 60.76 140.44 60.76 140.44 90.64 135.46 90.64 Z" fill="#ddd"/>
<path d="M 150.4 90.64 150.4 30.88 155.38 30.88 155.38 90.64 150.4 90.64 Z" fill="#ddd"/>
<path d="M 175.3 90.64 175.3 60.76 180.28 60.76 180.28 90.64 175.3 90.64 Z" fill="#ddd"/>
<path d="M 185.26 90.64 185.26 30.88 190.24 30.88 190.24 90.64 185.26 90.64 Z" fill="#ddd"/>
<path d="M 190.24 90.64 190.24 60.76 195.22 60.76 195.22 90.64 190.24 90.64 Z" fill="#ddd"/>
<path d="M 200.2 90.64 200.2 30.88 205.18 30.88 205.18 90.64 200.2 90.64 Z" fill="#ddd"/>
<path d="M 220.12 90.64 220.12 30.88 225.1 30.88 225.1 90.64 220.12 90.64 Z" fill="#ddd"/>
<path d="M 240.04 90.64 240.04 30.88 245.02 30.88 245.02 90.64 240.04 90.64 Z" fill="#ddd"/>
<path d="M 245.02 90.64 245.02 1 250 1 250 90.64 245.02 90.64 Z" fill="#ddd"/>
<path d="M 250 90.64 250 60.76 254.98 60.76 254.98 90.64 250 90.64 Z" fill="#ddd"/>
<path d="M 269.92 90.64 269.92 60.76 274.9 60.76 274.9 90.64 269.92 90.64 Z" fill="#ddd"/>
<path d="M 289.84 90.64 289.84 60.76 294.82 60.76 294.82 90.64 289.84 90.64 Z" fill="#ddd"/>
<path d="M 294.82 90.64 294.82 60.76 299.8 60.76 299.8 90.64 294.82 90.64 Z" fill="#ddd"/>
<path d="M 299.8 90.64 299.8 60.76 304.78 60.76 304.78 90.64 299.8 90.64 Z" fill="#ddd"/>
<path d="M 314.74 90.64 314.74 30.88 319.72 30.88 319.72 90.64 314.74 90.64 Z" fill="#ddd"/>
<path d="M 329.68 90.64 329.68 60.76 334.66 60.76 334.66 90.64 329.68 90.64 Z" fill="#ddd"/>
<path d="M 334.66 90.64 334.66 60.76 339.64 60.76 339.64 90.64 334.66 90.64 Z" fill="#ddd"/>
<path d="M 339.64 90.64 339.64 60.76 344.62 60.76 344.62 90.64 339.64 90.64 Z" fill="#ddd"/>
<path d="M 354.58 90.64 354.58 60.76 359.56 60.76 359.56 90.64 354.58 90.64 Z" fill="#ddd"/>
<path d="M 359.56 90.64 359.56 60.76 364.54 60.76 364.54 90.64 359.56 90.64 Z" fill="#ddd"/>
<path d="M 364.54 90.64 364.54 60.76 369.52 60.76 369.52 90.64 364.54 90.64 Z" fill="#ddd"/>
<path d="M 389.44 90.64 389.44 60.76 394.42 60.76 394.42 90.64 389.44 90.64 Z" fill="#ddd"/>
<path d="M 399.4 90.64 399.4 30.88 404.38 30.88 404.38 90.64 399.4 90.64 Z" fill="#ddd"/>
<path d="M 464.14 90.64 464.14 60.76 469.12 60.76 469.12 90.64 464.14 90.64 Z" fill="#ddd"/>
<path d="M 494.02 90.64 494.02 60.76 499 60.76 499 90.64 494.02 90.64 Z" fill="#ddd"/>
</g>
<g id="layer37">
<path d="M 1 100.6 1 90.64 123.13 90.64 123.13 100.6 1 100.6 Z" fill="#f1eef6"/>
<path d="M 123.13 100.6 123.13 90.64 187.16 90.64 187.16 100.6 123.13 100.6 Z" fill="#d4b9da"/>
<path d="M 187.16 100.6 187.16 90.64 242.89 90.64 242.89 100.6 187.16 100.6 Z" fill="#c994c7"/>
<path d="M 242.89 100.6 242.89 90.64 296.24 90.64 296.24 100.6 242.89 100.6 Z" fill="#df65b0"/>
<path d="M 296.24 100.6 296.24 90.64 355.53 90.64 355.53 100.6 296.24 100.6 Z" fill="#dd1c77"/>
<path d="M 355.53 100.6 355.53 90.64 499 90.64 499 100.6 355.53 100.6 Z" fill="#980043"/>
<g/>
</g>
<g id="layer38" fill="none" stroke="black" stroke-width="1">
<path d="M 1 90.64 1 106.58" stroke="rgba(0,0,0,0.3)"/>
<path d="M 123.13 90.64 123.13 106.58" stroke="rgba(0,0,0,0.3)"/>
<path d="M 187.16 90.64 187.16 106.58" stroke="rgba(0,0,0,0.3)"/>
<path d="M 242.89 90.64 242.89 106.58" stroke="rgba(0,0,0,0.3)"/>
<path d="M 296.24 90.64 296.24 106.58" stroke="rgba(0,0,0,0.3)"/>
<path d="M 355.53 90.64 355.53 106.58" stroke="rgba(0,0,0,0.3)"/>
<path d="M 499 90.64 499 106.58" stroke="rgba(0,0,0,0.3)"/>
</g>
<g id="layer39" font-family="sans-serif" font-size="12" text-anchor="middle">
<text y="0" x="0" transform="translate(1 119.6)" font-family="sans-serif" font-size="13" text-anchor="start" fill="#555">7.5</text>
<text y="0" x="0" transform="translate(123.1 119.6)" font-family="sans-serif" font-size="13" text-anchor="middle" fill="#555">17.8</text>
<text y="0" x="0" transform="translate(187.2 119.6)" font-family="sans-serif" font-size="13" text-anchor="middle" fill="#555">23.2</text>
<text y="0" x="0" transform="translate(242.9 119.6)" font-family="sans-serif" font-size="13" text-anchor="middle" fill="#555">27.9</text>
<text y="0" x="0" transform="translate(296.2 119.6)" font-family="sans-serif" font-size="13" text-anchor="middle" fill="#555">32.4</text>
<text y="0" x="0" transform="translate(355.5 119.6)" font-family="sans-serif" font-size="13" text-anchor="middle" fill="#555">37.4</text>
<text y="0" x="0" transform="translate(499 119.6)" font-family="sans-serif" font-size="13" text-anchor="end" fill="#555">49.5</text>
</g>
</svg>